Coordinates
version=1
nRows=14
nColumns=40
inDegrees=yes

Units are S.I. units (second, meters, Newtons, ...)
Angles are in degrees.

endheader
time	pelvis_tilt	pelvis_list	pelvis_rotation	pelvis_tx	pelvis_ty	pelvis_tz	hip_flexion_r	hip_adduction_r	hip_rotation_r	knee_angle_r	knee_angle_r_beta	ankle_angle_r	subtalar_angle_r	mtp_angle_r	hip_flexion_l	hip_adduction_l	hip_rotation_l	knee_angle_l	knee_angle_l_beta	ankle_angle_l	subtalar_angle_l	mtp_angle_l	lumbar_extension	lumbar_bending	lumbar_rotation	arm_flex_r	arm_add_r	arm_rot_r	elbow_flex_r	pro_sup_r	wrist_flex_r	wrist_dev_r	arm_flex_l	arm_add_l	arm_rot_l	elbow_flex_l	pro_sup_l	wrist_flex_l	wrist_dev_l
     47.24214286	     -6.29354766	     -3.92404655	     -3.66910630	      1.01416543	      0.92551835	      0.46911485	     30.57394178	     -2.87370452	    -13.16162185	     15.51025089	     15.51025089	      2.87118546	      6.22463482	      8.90761245	      2.73425613	     -3.88818655	     -8.01100892	     13.99342708	     13.99342708	     18.78454185	     -4.55215788	     -0.55447273	    -12.79980473	      6.94887326	      1.53998752	     -6.13009635	    -14.77586186	     -1.85547223	     41.58227234	     45.81522532	      0.00000000	      0.00000000	     10.02471706	    -17.46960467	     -0.24576929	    109.79168222	     47.91946561	      0.00000000	      0.00000000
     47.25428571	     -6.53735574	     -3.88180988	     -3.48344497	      1.01445852	      0.92318114	      0.47161821	     30.08689003	     -2.49271870	    -13.71746635	     13.71736445	     13.71736445	      2.74572769	      6.57913346	      9.51069692	      2.52315354	     -4.02911566	     -7.87453343	     14.11159075	     14.11159075	     19.23487782	     -4.48287659	     -0.86282219	    -12.29710434	      6.78799692	      1.46333010	     -5.63397494	    -14.46840739	     -1.75004658	     41.92280675	     45.79861074	      0.00000000	      0.00000000	     10.80193060	    -17.52256643	     -0.23021255	    110.19826534	     47.93705617	      0.00000000	      0.00000000
     47.26642857	     -6.54515284	     -4.23730525	     -3.36327297	      1.01535419	      0.92140466	      0.47429097	     29.19355277	     -1.73600680	    -14.62746241	     12.28268829	     12.28268829	      2.74843250	      7.25466217	     10.71285349	      2.09750118	     -4.74758243	     -8.51182512	     14.49932261	     14.49932261	     19.90372003	     -3.29306205	     -1.70511001	    -12.10687297	      7.18171544	      1.61772344	     -5.43989434	    -14.57807157	     -1.37378555	     42.82598246	     45.74007836	      0.00000000	      0.00000000	     10.87100634	    -17.73201066	      0.09321337	    110.92106358	     47.96865740	      0.00000000	      0.00000000
     47.27857143	     -6.67261940	     -4.10577675	     -3.33050420	      1.01635884	      0.91948806	      0.47667498	     29.01387317	     -1.57050608	    -14.92057316	     12.26577672	     12.26577672	      2.68990373	      7.10974178	     10.74341524	      1.66996544	     -4.74826659	     -8.47246406	     14.56627029	     14.56627029	     20.24303419	     -3.35105548	     -1.83080340	    -11.62481741	      7.05845309	      1.77151176	     -5.21511734	    -14.56154779	     -1.37002265	     42.92716673	     45.73739103	      0.00000000	      0.00000000	     10.93122439	    -17.74011645	      0.07725429	    110.97173986	     47.97160736	      0.00000000	      0.00000000
     47.29071429	     -6.67585898	     -4.45220957	     -3.14204939	      1.01747913	      0.91807043	      0.47908044	     28.25738773	     -0.93162471	    -15.55956100	     11.82005358	     11.82005358	      2.15381999	      7.09886116	     10.32641380	      1.31576238	     -5.36560673	     -8.42319948	     15.06807912	     15.06807912	     20.91769550	     -3.08331489	     -2.04375192	    -11.47984075	      7.45062330	      1.78769445	     -4.48755202	    -14.54702770	     -1.23100860	     43.60431629	     45.70739067	      0.00000000	      0.00000000	     11.19016691	    -17.66121567	      0.15507803	    111.32758857	     47.98900301	      0.00000000	      0.00000000
     47.30285714	     -6.67220787	     -4.54529070	     -3.07015097	      1.01884494	      0.91682493	      0.48136367	     27.91112967	     -0.64856783	    -15.80295599	     12.39050984	     12.39050984	      1.93737347	      6.80769936	      9.85739633	      0.83667276	     -5.64009741	     -8.38689180	     15.35332863	     15.35332863	     21.29963547	     -3.07086296	     -2.09627335	    -11.23466487	      7.61884969	      1.92361685	     -3.90459224	    -14.61852325	     -1.20990289	     43.95954367	     45.69598968	      0.00000000	      0.00000000	     11.12712534	    -17.49526667	      0.21403836	    111.37029659	     47.99083800	      0.00000000	      0.00000000
     47.31500000	     -6.60371855	     -4.51071486	     -2.97206257	      1.02041580	      0.91547465	      0.48363790	     27.43506805	     -0.44714791	    -15.58239842	     12.79890623	     12.79890623	     -0.41907114	      5.59092526	      2.65328518	      0.66512004	     -5.92345502	     -8.72510362	     16.46496199	     16.46496199	     22.60565470	     -2.22029136	     -0.75605553	    -11.06946576	      7.65911939	      1.77444964	     -3.71322585	    -14.92073169	     -0.39806520	     45.56367549	     45.58937535	      0.00000000	      0.00000000	     10.55816587	    -17.38193993	     -0.51707194	    111.74337434	     48.12570763	      0.00000000	      0.00000000
     47.32714286	     -6.55743306	     -4.49525316	     -2.88709369	      1.02176896	      0.91455851	      0.48577418	     27.34522663	     -0.41419450	    -15.46608522	     14.10380288	     14.10380288	     -0.40286678	      4.92496376	      1.70320492	      0.53359568	     -6.09507938	     -8.40440619	     17.43919660	     17.43919660	     22.87743320	     -2.78285644	     -0.85540490	    -10.89923173	      7.71810764	      1.87578799	     -3.04689783	    -15.13270350	     -0.44500552	     45.72079684	     45.58940767	      0.00000000	      0.00000000	     10.32749477	    -17.23179301	     -0.52596231	    111.41988790	     48.13291149	      0.00000000	      0.00000000
     47.33928571	     -6.44745535	     -4.49669128	     -2.75668732	      1.02314152	      0.91400474	      0.48779387	     27.19325361	     -0.40135760	    -15.24847833	     15.41007843	     15.41007843	     -0.32375340	      4.11513465	      0.63226021	      0.53026535	     -6.30310392	     -8.00170086	     18.76002372	     18.76002372	     23.06329910	     -3.44510948	     -1.01269896	    -10.85265289	      7.86724151	      1.99464547	     -2.37366765	    -15.31592945	     -0.56333183	     45.96388221	     45.58968942	      0.00000000	      0.00000000	      9.89685055	    -17.02243658	     -0.69373812	    111.01425847	     48.14548560	      0.00000000	      0.00000000
     47.35142857	     -6.30490612	     -4.47593716	     -2.62764409	      1.02452854	      0.91374029	      0.48983912	     26.90741746	     -0.33054015	    -14.64040205	     16.39912549	     16.39912549	     -0.86037286	      2.72465921	     -2.47333735	      0.70439223	     -6.48811805	     -7.50205044	     20.43259932	     20.43259932	     23.00178055	     -4.49488239	     -1.31007111	    -10.84829413	      8.00482949	      1.88369378	     -1.57217082	    -15.45289790	     -0.90271947	     46.21139009	     45.59845843	      0.00000000	      0.00000000	      9.07849079	    -16.54136295	     -1.52171434	    110.54418284	     48.24622819	      0.00000000	      0.00000000
     47.36357143	     -6.14544771	     -4.49151476	     -2.44561360	      1.02562650	      0.91374642	      0.49181349	     26.75339887	     -0.36545137	    -14.41439434	     17.69875155	     17.69875155	     -0.28260067	      2.08927059	     -3.03766965	      1.22503315	     -6.79124285	     -7.06802631	     22.71892106	     22.71892106	     22.80855407	     -5.44777139	     -1.83132538	    -10.93179668	      8.15842938	      1.96516319	     -0.84530604	    -15.74061712	     -1.08099609	     46.40560158	     45.60370912	      0.00000000	      0.00000000	      8.51919137	    -16.36770531	     -1.55934568	    109.86696346	     48.24206525	      0.00000000	      0.00000000
     47.37571429	     -6.01928690	     -4.50327133	     -2.26348331	      1.02658666	      0.91399224	      0.49380124	     26.58566442	     -0.35743632	    -14.01555464	     18.81327176	     18.81327176	      0.38067882	      1.28755526	     -3.46824476	      2.05354761	     -7.10227506	     -6.56081718	     25.43353744	     25.43353744	     22.23691705	     -6.71553881	     -2.60624511	    -11.00307355	      8.31596347	      2.00528750	     -0.08138973	    -16.02080576	     -1.35937937	     46.60035340	     45.61370441	      0.00000000	      0.00000000	      7.78458933	    -16.03509679	     -1.79639827	    108.90148819	     48.24497654	      0.00000000	      0.00000000
     47.38785714	     -5.86447247	     -4.53550850	     -2.05417386	      1.02738658	      0.91449384	      0.49577800	     26.34241169	     -0.30016201	    -13.54938728	     19.78000063	     19.78000063	      1.15034732	      0.34771506	     -3.67389510	      3.07361659	     -7.42359108	     -5.95854738	     28.43634894	     28.43634894	     20.97749847	     -8.45121106	     -4.17864415	    -11.12133724	      8.50338389	      1.97358989	      0.79756313	    -16.25954479	     -1.84633733	     46.70674242	     45.63641886	      0.00000000	      0.00000000	      6.98836826	    -15.53201566	     -2.35284652	    107.57781455	     48.26988348	      0.00000000	      0.00000000
     47.40000000	     -5.60364879	     -4.68172571	     -1.79735203	      1.02810043	      0.91531112	      0.49777240	     25.80762288	     -0.15815447	    -13.47558076	     20.40956522	     20.40956522	      1.95980562	     -0.02508905	     -3.94611925	      4.28686657	     -7.94806471	     -5.48092541	     31.97302822	     31.97302822	     19.75209323	     -9.83930405	     -5.03569068	    -11.42724317	      8.78896204	      2.04661294	      1.64809496	    -16.63264837	     -2.13280748	     46.87803342	     45.64828828	      0.00000000	      0.00000000	      6.21932914	    -15.24409153	     -2.38858551	    106.61602802	     48.25487582	      0.00000000	      0.00000000
